<?xml version="1.0" encoding="UTF-8" standalone="no"?>
<svg width="144px" height="32px" viewBox="0 0 144 32" version="1.1" xmlns="http://www.w3.org/2000/svg" xmlns:xlink="http://www.w3.org/1999/xlink" xmlns:sketch="http://www.bohemiancoding.com/sketch/ns">
    <!-- Generator: Sketch 3.3.2 (12043) - http://www.bohemiancoding.com/sketch -->
    <title>Slice 1</title>
    <desc>Created with Sketch.</desc>
    <defs>
        <radialGradient cx="50%" cy="50%" fx="50%" fy="50%" r="50%" id="radialGradient-1">
            <stop stop-color="#FFFFFF" offset="0%"></stop>
            <stop stop-color="#F2F2F2" stop-opacity="0.2" offset="100%"></stop>
        </radialGradient>
        <linearGradient x1="50%" y1="-7.8652%" x2="50%" y2="249.6629%" id="linearGradient-2">
            <stop stop-color="#FFFFFF" offset="0%"></stop>
            <stop stop-color="#C8C8C8" offset="100%"></stop>
        </linearGradient>
        <linearGradient x1="50%" y1="0%" x2="50%" y2="238.75%" id="linearGradient-3">
            <stop stop-color="#FFFFFF" offset="0%"></stop>
            <stop stop-color="#C8C8C8" offset="100%"></stop>
        </linearGradient>
        <linearGradient x1="50%" y1="0%" x2="50%" y2="100%" id="linearGradient-4">
            <stop stop-color="#FFFFFF" offset="0%"></stop>
            <stop stop-color="#C8C8C8" offset="100%"></stop>
        </linearGradient>
        <linearGradient x1="40%" y1="-140%" x2="40%" y2="98.75%" id="linearGradient-5">
            <stop stop-color="#FFFFFF" offset="0%"></stop>
            <stop stop-color="#C8C8C8" offset="100%"></stop>
        </linearGradient>
        <linearGradient x1="60%" y1="-140%" x2="60%" y2="98.75%" id="linearGradient-6">
            <stop stop-color="#FFFFFF" offset="0%"></stop>
            <stop stop-color="#C8C8C8" offset="100%"></stop>
        </linearGradient>
        <linearGradient x1="50%" y1="0%" x2="50%" y2="298.4375%" id="linearGradient-7">
            <stop stop-color="#FFFFFF" offset="0%"></stop>
            <stop stop-color="#C8C8C8" offset="100%"></stop>
        </linearGradient>
        <linearGradient x1="50%" y1="-200%" x2="50%" y2="100%" id="linearGradient-8">
            <stop stop-color="#FFFFFF" offset="0%"></stop>
            <stop stop-color="#C8C8C8" offset="100%"></stop>
        </linearGradient>
        <linearGradient x1="50%" y1="-200%" x2="50%" y2="110.9375%" id="linearGradient-9">
            <stop stop-color="#FFFFFF" offset="0%"></stop>
            <stop stop-color="#C8C8C8" offset="100%"></stop>
        </linearGradient>
        <linearGradient x1="55%" y1="0%" x2="55%" y2="100%" id="linearGradient-10">
            <stop stop-color="#FFFFFF" offset="0%"></stop>
            <stop stop-color="#C8C8C8" offset="100%"></stop>
        </linearGradient>
        <linearGradient x1="50%" y1="0%" x2="50%" y2="100%" id="linearGradient-11">
            <stop stop-color="#FFFFFF" offset="0%"></stop>
            <stop stop-color="#C8C8C8" offset="99.4444%"></stop>
        </linearGradient>
    </defs>
    <g id="Page-1" stroke="none" stroke-width="1" fill="none" fill-rule="evenodd" sketch:type="MSPage">
        <g id="controls" sketch:type="MSLayerGroup">
            <g id="BG"></g>
            <g transform="translate(98.000000, 2.000000)" sketch:type="MSShapeGroup">
                <path d="M0.5,5.5 L11.5,5.5" id="Line" stroke="#FFFFFF"></path>
                <path d="M0.5,1.5 L11.5,1.5" id="Line2" stroke="#FFFFFF"></path>
                <path d="M0.5,9.5 L11.5,9.5" id="Line3" stroke="#FFFFFF"></path>
                <path d="M10,9.5 C10,8.6716 10.4477,8 11,8 C11.5523,8 12,8.6716 12,9.5 C12,10.3284 11.5523,11 11,11 C10.4477,11 10,10.3284 10,9.5 L10,9.5 Z" id="Ellipse" fill="#FFFFFF"></path>
                <path d="M6,5.5 C6,4.6716 6.4477,4 7,4 C7.5523,4 8,4.6716 8,5.5 C8,6.3284 7.5523,7 7,7 C6.4477,7 6,6.3284 6,5.5 L6,5.5 Z" id="Ellipse2" fill="#FFFFFF"></path>
                <path d="M10,1.5 C10,0.6716 10.4477,0 11,0 C11.5523,0 12,0.6716 12,1.5 C12,2.3284 11.5523,3 11,3 C10.4477,3 10,2.3284 10,1.5 L10,1.5 Z" id="Ellipse3" fill="#FFFFFF"></path>
            </g>
            <g id="backlight" transform="translate(81.000000, 3.000000)" sketch:type="MSShapeGroup">
                <g id="off" transform="translate(2.000000, 18.000000)" stroke="#FFFFFF" fill="#333333">
                    <rect id="Rectangle-path" x="0" y="0" width="10" height="6"></rect>
                </g>
                <g id="on">
                    <path d="M0,5 C0,2.2385 3.134,0 7,0 C10.866,0 14,2.2385 14,5 C14,7.7615 10.866,10 7,10 C3.134,10 0,7.7615 0,5 L0,5 Z" id="Ellipse4" fill="url(#radialGradient-1)"></path>
                    <rect id="Rectangle-path" stroke="#FFFFFF" fill="#333333" x="2" y="2" width="10" height="6"></rect>
                </g>
            </g>
            <g id="loop" transform="translate(66.000000, 2.000000)" sketch:type="MSShapeGroup">
                <g id="on2">
                    <path d="M7.795,2.205 C9.2155,2.8785 10.2,4.3234 10.2,6 C10.2,8.3196 8.3196,10.2 6,10.2 C3.6804,10.2 1.8,8.3196 1.8,6 C1.8,4.3234 2.7845,2.8785 4.205,2.205 L2.875,0.875 C1.1501,1.9289 0,3.8306 0,6 C0,9.3138 2.6862,12 6,12 C9.3138,12 12,9.3138 12,6 C12,3.8306 10.8499,1.9289 9.125,0.875 L7.795,2.205 L7.795,2.205 Z" id="Shape" fill="url(#linearGradient-2)"></path>
                    <path d="M5,0 L0,0 L5,5 L5,0 L5,0 Z" id="Shape" fill="url(#linearGradient-3)"></path>
                </g>
                <g id="off2" transform="translate(0.000000, 16.000000)" fill="#A8A8B7">
                    <path d="M7.795,2.205 C9.2155,2.8785 10.2,4.3234 10.2,6 C10.2,8.3196 8.3196,10.2 6,10.2 C3.6804,10.2 1.8,8.3196 1.8,6 C1.8,4.3234 2.7845,2.8785 4.205,2.205 L2.875,0.875 C1.1501,1.9289 0,3.8306 0,6 C0,9.3138 2.6862,12 6,12 C9.3138,12 12,9.3138 12,6 C12,3.8306 10.8499,1.9289 9.125,0.875 L7.795,2.205 L7.795,2.205 Z" id="Shape"></path>
                    <path d="M5,0 L0,0 L5,5 L5,0 L5,0 Z" id="Shape"></path>
                </g>
            </g>
            <g id="cc" transform="translate(49.000000, 2.000000)">
                <rect id="Rectangle-path" stroke="#B0B0B0" sketch:type="MSShapeGroup" x="0" y="0" width="14" height="12"></rect>
                <text fill="#FFFFFF" sketch:type="MSTextLayer" font-family="Arial" font-size="8.95104895" font-weight="normal">
                    <tspan x="2.1" y="24.2" fill="#000000">cc</tspan>
                </text>
                <path d="M6,5 C1.2813,1.7813 1.063,10.9405 6,8" id="Shape" stroke="#FFFFFF" sketch:type="MSShapeGroup"></path>
                <path d="M11,5 C6.2813,1.7813 6.063,10.9405 11,8" id="Shape" stroke="#FFFFFF" sketch:type="MSShapeGroup"></path>
                <path d="M1,1 L13,1 L13,11 L1,11 L1,1 L1,1 Z M0,0 L0,12 L14,12 L14,0 L0,0 L0,0 Z" id="Shape" fill="url(#linearGradient-4)" sketch:type="MSShapeGroup"></path>
                <rect id="Rectangle-path" sketch:type="MSShapeGroup" x="0" y="0" width="14" height="12"></rect>
            </g>
            <g id="fullscreen" transform="translate(34.000000, 2.000000)" sketch:type="MSShapeGroup">
                <g id="enter%201">
                    <path d="M0,0 L5,0 L0,5 L0,0 L0,0 Z" id="Shape" fill="url(#linearGradient-3)"></path>
                    <path d="M0,12 L5,12 L0,7 L0,12 L0,12 Z" id="Shape" fill="url(#linearGradient-5)"></path>
                    <path d="M12,0 L7,0 L12,5 L12,0 L12,0 Z" id="Shape" fill="url(#linearGradient-3)"></path>
                    <path d="M12,12 L7,12 L12,7 L12,12 L12,12 Z" id="Shape" fill="url(#linearGradient-6)"></path>
                </g>
                <g id="exit" transform="translate(0.000000, 16.000000)">
                    <path d="M8,4 L12,4 L8,0 L8,4 L8,4 Z" id="Shape" fill="url(#linearGradient-7)"></path>
                    <path d="M4,4 L4,0 L0,4 L4,4 L4,4 Z" id="Shape" fill="url(#linearGradient-3)"></path>
                    <path d="M4,8 L0,8 L4,12 L4,8 L4,8 Z" id="Shape" fill="url(#linearGradient-8)"></path>
                    <path d="M8,8 L8,12 L12,8 L8,8 L8,8 Z" id="Shape" fill="url(#linearGradient-9)"></path>
                </g>
            </g>
            <g id="stop" transform="translate(115.000000, 3.000000)" fill="url(#linearGradient-10)" sketch:type="MSShapeGroup">
                <rect id="Rectangle-path" x="0" y="0" width="10" height="10"></rect>
            </g>
            <g id="chooser" transform="translate(129.000000, 1.000000)" fill="url(#linearGradient-11)" sketch:type="MSShapeGroup">
                <path d="M6.2346,5.1522 C7.2551,4.7295 8.4251,5.2141 8.8478,6.2346 C9.2704,7.2551 8.7859,8.425 7.7654,8.8478 C6.7449,9.2705 5.5749,8.7859 5.1522,7.7654 C4.7295,6.7449 5.2141,5.5749 6.2346,5.1522 L6.2346,5.1522 Z M4.2735,0.4176 L7,3.0054 L9.7265,0.4176 L9.8246,4.1754 L13.5824,4.2735 L10.9946,7 L13.5824,9.7265 L9.8246,9.8246 L9.7265,13.5824 L7,10.9946 L4.2735,13.5824 L4.1754,9.8246 L0.4176,9.7265 L3.0054,7 L0.4176,4.2735 L4.1754,4.1754 L4.2735,0.4176 L4.2735,0.4176 Z" id="Shape"></path>
            </g>
        </g>
        <g id="Group" sketch:type="MSLayerGroup" transform="translate(2.000000, 2.200000)">
            <path d="M4.45780645,0.486 C7.59251613,-0.327375 10.8150968,1.474875 11.6550968,4.511625 C12.4947097,7.54875 10.6343226,10.670625 7.4996129,11.484 C4.36451613,12.29775 1.14193548,10.4955 0.302322581,7.458375 C-0.537677419,4.421625 1.32270968,1.29975 4.45780645,0.486 L4.45780645,0.486 Z" id="Fill-50" fill="#CACACA" sketch:type="MSShapeGroup"></path>
            <path d="M4.45780645,0.486 C7.59251613,-0.327375 10.8150968,1.474875 11.6550968,4.511625 C12.4947097,7.54875 10.6343226,10.670625 7.4996129,11.484 C4.36451613,12.29775 1.14193548,10.4955 0.302322581,7.458375 C-0.537677419,4.421625 1.32270968,1.29975 4.45780645,0.486 L4.45780645,0.486 Z" id="Stroke-52" stroke="#A8A8A8" stroke-width="0.5" stroke-linecap="round" sketch:type="MSShapeGroup"></path>
            <path d="M3.55354839,9.187125 L3.55354839,2.712 C3.55354839,2.418375 3.89651613,2.18025 4.31767742,2.18025 L9.79625806,5.6985 C10.0947097,5.907 10.0947097,6.2445 9.79625806,6.453 L4.31767742,9.72 C3.89651613,9.72 3.55354839,9.48075 3.55354839,9.187125 L3.55354839,9.187125 Z" id="Fill-54" fill="#FFFFFF" sketch:type="MSShapeGroup"></path>
            <path d="M3.55354839,9.187125 L3.55354839,2.712 C3.55354839,2.418375 3.89651613,2.18025 4.31767742,2.18025 L9.79625806,5.6985 C10.0947097,5.907 10.0947097,6.2445 9.79625806,6.453 L4.31767742,9.72 C3.89651613,9.72 3.55354839,9.48075 3.55354839,9.187125 L3.55354839,9.187125 Z" id="Stroke-56" stroke="#515151" stroke-width="0.5" stroke-linecap="round" sketch:type="MSShapeGroup"></path>
        </g>
        <g id="Group" sketch:type="MSLayerGroup" transform="translate(17.000000, 1.700000)">
            <path d="M9.3268,11.1683077 L9.3268,1.22723077 C9.3268,0.775846154 9.2372,0.409384615 8.6478,0.409384615 C6.93933333,2.25969231 5.84686667,2.64692308 2.5662,4.43446154 C2.14946667,4.75384615 2.14946667,7.87476923 2.5662,8.19369231 C5.1044,9.51646154 6.0088,9.84461538 8.6478,11.9861538 C9.2372,11.9861538 9.3268,11.6196923 9.3268,11.1683077 L9.3268,11.1683077 Z" id="Fill-36" fill="#FFFFFF" sketch:type="MSShapeGroup"></path>
            <path d="M9.3268,11.1683077 L9.3268,1.22723077 C9.3268,0.775846154 9.2372,0.409384615 8.6478,0.409384615 C6.93933333,2.25969231 5.84686667,2.64692308 2.5662,4.43446154 C2.14946667,4.75384615 2.14946667,7.87476923 2.5662,8.19369231 C5.1044,9.51646154 6.0088,9.84461538 8.6478,11.9861538 C9.2372,11.9861538 9.3268,11.6196923 9.3268,11.1683077 L9.3268,11.1683077 Z" id="Stroke-38" stroke="#515151" stroke-width="0.5" stroke-linecap="round" sketch:type="MSShapeGroup"></path>
            <path d="M0.296333333,4.22861538 L0.296333333,8.30076923 C0.296333333,8.64184615 0.5768,8.91923077 0.921666667,8.91923077 L2.43506667,8.91923077 C2.77993333,8.91923077 3.0604,8.64184615 3.0604,8.30076923 L3.0604,4.22861538 C3.0604,3.88753846 2.77993333,3.61015385 2.43506667,3.61015385 L0.921666667,3.61015385 C0.5768,3.61015385 0.296333333,3.88753846 0.296333333,4.22861538 L0.296333333,4.22861538 Z" id="Fill-40" fill="#FFFFFF" sketch:type="MSShapeGroup"></path>
            <path d="M0.296333333,4.22861538 L0.296333333,8.30076923 C0.296333333,8.64184615 0.5768,8.91923077 0.921666667,8.91923077 L2.43506667,8.91923077 C2.77993333,8.91923077 3.0604,8.64184615 3.0604,8.30076923 L3.0604,4.22861538 C3.0604,3.88753846 2.77993333,3.61015385 2.43506667,3.61015385 L0.921666667,3.61015385 C0.5768,3.61015385 0.296333333,3.88753846 0.296333333,4.22861538 L0.296333333,4.22861538 Z" id="Stroke-42" stroke="#515151" stroke-width="0.5" stroke-linecap="round" sketch:type="MSShapeGroup"></path>
            <path d="M4.1174,4.73815385 C5.10953333,4.476 6.01766667,3.93 6.8404,3.33" id="Stroke-44" stroke="#515151" stroke-width="0.5" stroke-linecap="round" stroke-linejoin="round" sketch:type="MSShapeGroup"></path>
            <path d="M10.6106,3.73753846 L13.9318667,8.69169231" id="Stroke-59" stroke="#515151" stroke-width="0.5" stroke-linecap="round" sketch:type="MSShapeGroup"></path>
            <path d="M13.9318667,3.73753846 L10.6106,8.69169231" id="Stroke-61" stroke="#515151" stroke-width="0.5" stroke-linecap="round" sketch:type="MSShapeGroup"></path>
        </g>
        <g id="Group" sketch:type="MSLayerGroup" transform="translate(16.800000, 18.100000)">
            <path d="M13.1419355,2.74707692 C14.0541935,4.956 13.9792258,7.08369231 13.1419355,9.14769231" id="Stroke-182" stroke="#515151" stroke-width="0.5022" stroke-linecap="round" stroke-linejoin="round" sketch:type="MSShapeGroup"></path>
            <path d="M11.9849032,3.44215385 C12.6993548,5.17107692 12.6401935,6.83676923 11.9849032,8.45307692" id="Stroke-184" stroke="#515151" stroke-width="0.5022" stroke-linecap="round" stroke-linejoin="round" sketch:type="MSShapeGroup"></path>
            <path d="M10.6446771,4.37917021 C11.1895977,5.43699862 11.1784771,6.46147795 10.6438935,7.51759343 C10.59145,7.62119997 10.6109193,7.7627977 10.6873793,7.83386081 C10.7638393,7.90492392 10.8683362,7.87854225 10.9207797,7.77493571 C11.5330468,6.56534974 11.5464046,5.33477583 10.9199961,4.11875888 C10.8669272,4.01573876 10.7622741,3.99051951 10.6862468,4.06243011 C10.6102196,4.13434071 10.5916082,4.27615008 10.6446771,4.37917021 L10.6446771,4.37917021 Z" id="Shape" stroke="#636363" stroke-width="0.2" fill="#515151" sketch:type="MSShapeGroup"></path>
            <path d="M9.15053772,10.8424615 L9.15053772,0.901384615 C9.15053772,0.45 9.06382804,0.0835384615 8.49344095,0.0835384615 C6.84008611,1.93384615 5.7828603,2.32107692 2.60802159,4.10861538 C2.20473127,4.428 2.20473127,7.54892308 2.60802159,7.86784615 C5.06434417,9.19061538 5.93956998,9.51876923 8.49344095,11.6603077 C9.06382804,11.6603077 9.15053772,11.2938462 9.15053772,10.8424615 L9.15053772,10.8424615 Z" id="Fill-36" fill="#FFFFFF" sketch:type="MSShapeGroup"></path>
            <path d="M9.15053772,10.8424615 L9.15053772,0.901384615 C9.15053772,0.45 9.06382804,0.0835384615 8.49344095,0.0835384615 C6.84008611,1.93384615 5.7828603,2.32107692 2.60802159,4.10861538 C2.20473127,4.428 2.20473127,7.54892308 2.60802159,7.86784615 C5.06434417,9.19061538 5.93956998,9.51876923 8.49344095,11.6603077 C9.06382804,11.6603077 9.15053772,11.2938462 9.15053772,10.8424615 L9.15053772,10.8424615 Z" id="Stroke-38" stroke="#515151" stroke-width="0.5" stroke-linecap="round" sketch:type="MSShapeGroup"></path>
            <path d="M0.41137643,3.90276923 L0.41137643,7.97492308 C0.41137643,8.316 0.682795785,8.59338462 1.01653772,8.59338462 L2.48111837,8.59338462 C2.8148603,8.59338462 3.08627966,8.316 3.08627966,7.97492308 L3.08627966,3.90276923 C3.08627966,3.56169231 2.8148603,3.28430769 2.48111837,3.28430769 L1.01653772,3.28430769 C0.682795785,3.28430769 0.41137643,3.56169231 0.41137643,3.90276923 L0.41137643,3.90276923 Z" id="Fill-40" fill="#FFFFFF" sketch:type="MSShapeGroup"></path>
            <path d="M0.41137643,3.90276923 L0.41137643,7.97492308 C0.41137643,8.316 0.682795785,8.59338462 1.01653772,8.59338462 L2.48111837,8.59338462 C2.8148603,8.59338462 3.08627966,8.316 3.08627966,7.97492308 L3.08627966,3.90276923 C3.08627966,3.56169231 2.8148603,3.28430769 2.48111837,3.28430769 L1.01653772,3.28430769 C0.682795785,3.28430769 0.41137643,3.56169231 0.41137643,3.90276923 L0.41137643,3.90276923 Z" id="Stroke-42" stroke="#515151" stroke-width="0.5" stroke-linecap="round" sketch:type="MSShapeGroup"></path>
            <path d="M4.10918288,4.41230769 C5.06931191,4.15015385 5.94815062,3.60415385 6.74434417,3.00415385" id="Stroke-44" stroke="#515151" stroke-width="0.5" stroke-linecap="round" stroke-linejoin="round" sketch:type="MSShapeGroup"></path>
        </g>
        <g id="Group" sketch:type="MSLayerGroup" transform="translate(2.200000, 18.000000)">
            <path d="M11.5660645,4.572 C12.4056774,7.609125 10.5452903,10.731 7.41058065,11.54475 C4.27548387,12.358875 1.05290323,10.556625 0.213290323,7.5195 C-0.626709677,4.48275 1.23367742,1.360875 4.36877419,0.54675 C7.50348387,-0.267 10.7260645,1.53525 11.5660645,4.572 Z" id="Fill-227" fill="#CACACA" sketch:type="MSShapeGroup"></path>
            <path d="M4.36877419,0.54675 C7.50348387,-0.267 10.7260645,1.53525 11.5660645,4.572 C12.4056774,7.609125 10.5452903,10.731 7.41058065,11.54475 C4.27548387,12.358875 1.05290323,10.556625 0.213290323,7.5195 C-0.626709677,4.48275 1.23367742,1.360875 4.36877419,0.54675 L4.36877419,0.54675 Z" id="Stroke-229" stroke="#A8A8A8" stroke-width="0.5" stroke-linecap="round" sketch:type="MSShapeGroup"></path>
            <path d="M6.504,3.31125 L6.504,8.748375 C6.504,9.00525 6.7196129,9.214125 6.98477419,9.214125 L8.57303226,9.214125 C8.83819355,9.214125 9.05380645,9.00525 9.05380645,8.748375 L9.05380645,3.31125 C9.05380645,3.054375 8.83819355,2.8455 8.57303226,2.8455 L6.98477419,2.8455 C6.7196129,2.8455 6.504,3.054375 6.504,3.31125 L6.504,3.31125 Z" id="Fill-235" fill="#FFFFFF" sketch:type="MSShapeGroup"></path>
            <path d="M6.504,3.31125 L6.504,8.748375 C6.504,9.00525 6.7196129,9.214125 6.98477419,9.214125 L8.57303226,9.214125 C8.83819355,9.214125 9.05380645,9.00525 9.05380645,8.748375 L9.05380645,3.31125 C9.05380645,3.054375 8.83819355,2.8455 8.57303226,2.8455 L6.98477419,2.8455 C6.7196129,2.8455 6.504,3.054375 6.504,3.31125 L6.504,3.31125 Z" id="Stroke-237" stroke="#515151" stroke-width="0.5" stroke-linecap="round" sketch:type="MSShapeGroup"></path>
            <path d="M2.73174194,3.31125 L2.73174194,8.748375 C2.73174194,9.00525 2.94735484,9.214125 3.21251613,9.214125 L4.80232258,9.214125 C5.06748387,9.214125 5.28309677,9.00525 5.28309677,8.748375 L5.28309677,3.31125 C5.28309677,3.054375 5.06748387,2.8455 4.80232258,2.8455 L3.21251613,2.8455 C2.94735484,2.8455 2.73174194,3.054375 2.73174194,3.31125 L2.73174194,3.31125 Z" id="Fill-231" fill="#FFFFFF" sketch:type="MSShapeGroup"></path>
            <path d="M2.73174194,3.31125 L2.73174194,8.748375 C2.73174194,9.00525 2.94735484,9.214125 3.21251613,9.214125 L4.80232258,9.214125 C5.06748387,9.214125 5.28309677,9.00525 5.28309677,8.748375 L5.28309677,3.31125 C5.28309677,3.054375 5.06748387,2.8455 4.80232258,2.8455 L3.21251613,2.8455 C2.94735484,2.8455 2.73174194,3.054375 2.73174194,3.31125 L2.73174194,3.31125 Z" id="Stroke-233" stroke="#515151" stroke-width="0.5" stroke-linecap="round" sketch:type="MSShapeGroup"></path>
        </g>
    </g>
</svg>