<?xml version="1.0" encoding="UTF-8" standalone="no"?>
<svg width="144px" height="32px" viewBox="0 0 144 32" version="1.1" xmlns="http://www.w3.org/2000/svg" xmlns:xlink="http://www.w3.org/1999/xlink" xmlns:sketch="http://www.bohemiancoding.com/sketch/ns">
    <!-- Generator: Sketch 3.3.2 (12043) - http://www.bohemiancoding.com/sketch -->
    <title>Slice 1</title>
    <desc>Created with Sketch.</desc>
    <defs>
        <radialGradient cx="50%" cy="50%" fx="50%" fy="50%" r="50%" id="radialGradient-1">
            <stop stop-color="#FFFFFF" offset="0%"></stop>
            <stop stop-color="#F2F2F2" stop-opacity="0.2" offset="100%"></stop>
        </radialGradient>
        <linearGradient x1="50%" y1="-7.8652%" x2="50%" y2="249.6629%" id="linearGradient-2">
            <stop stop-color="#FFFFFF" offset="0%"></stop>
            <stop stop-color="#C8C8C8" offset="100%"></stop>
        </linearGradient>
        <linearGradient x1="50%" y1="0%" x2="50%" y2="238.75%" id="linearGradient-3">
            <stop stop-color="#FFFFFF" offset="0%"></stop>
            <stop stop-color="#C8C8C8" offset="100%"></stop>
        </linearGradient>
        <linearGradient x1="50%" y1="0%" x2="50%" y2="100%" id="linearGradient-4">
            <stop stop-color="#FFFFFF" offset="0%"></stop>
            <stop stop-color="#C8C8C8" offset="100%"></stop>
        </linearGradient>
        <linearGradient x1="40%" y1="-140%" x2="40%" y2="98.75%" id="linearGradient-5">
            <stop stop-color="#FFFFFF" offset="0%"></stop>
            <stop stop-color="#C8C8C8" offset="100%"></stop>
        </linearGradient>
        <linearGradient x1="60%" y1="-140%" x2="60%" y2="98.75%" id="linearGradient-6">
            <stop stop-color="#FFFFFF" offset="0%"></stop>
            <stop stop-color="#C8C8C8" offset="100%"></stop>
        </linearGradient>
        <linearGradient x1="50%" y1="0%" x2="50%" y2="298.4375%" id="linearGradient-7">
            <stop stop-color="#FFFFFF" offset="0%"></stop>
            <stop stop-color="#C8C8C8" offset="100%"></stop>
        </linearGradient>
        <linearGradient x1="50%" y1="-200%" x2="50%" y2="100%" id="linearGradient-8">
            <stop stop-color="#FFFFFF" offset="0%"></stop>
            <stop stop-color="#C8C8C8" offset="100%"></stop>
        </linearGradient>
        <linearGradient x1="50%" y1="-200%" x2="50%" y2="110.9375%" id="linearGradient-9">
            <stop stop-color="#FFFFFF" offset="0%"></stop>
            <stop stop-color="#C8C8C8" offset="100%"></stop>
        </linearGradient>
        <linearGradient x1="55%" y1="0%" x2="55%" y2="100%" id="linearGradient-10">
            <stop stop-color="#FFFFFF" offset="0%"></stop>
            <stop stop-color="#C8C8C8" offset="100%"></stop>
        </linearGradient>
        <linearGradient x1="50%" y1="0%" x2="50%" y2="100%" id="linearGradient-11">
            <stop stop-color="#FFFFFF" offset="0%"></stop>
            <stop stop-color="#C8C8C8" offset="99.4444%"></stop>
        </linearGradient>
    </defs>
    <g id="Page-1" stroke="none" stroke-width="1" fill="none" fill-rule="evenodd" sketch:type="MSPage">
        <g id="controls" sketch:type="MSLayerGroup">
            <g id="BG"></g>
            <g transform="translate(98.000000, 2.000000)" sketch:type="MSShapeGroup">
                <path d="M0.5,5.5 L11.5,5.5" id="Line" stroke="#FFFFFF"></path>
                <path d="M0.5,1.5 L11.5,1.5" id="Line2" stroke="#FFFFFF"></path>
                <path d="M0.5,9.5 L11.5,9.5" id="Line3" stroke="#FFFFFF"></path>
                <path d="M10,9.5 C10,8.6716 10.4477,8 11,8 C11.5523,8 12,8.6716 12,9.5 C12,10.3284 11.5523,11 11,11 C10.4477,11 10,10.3284 10,9.5 L10,9.5 Z" id="Ellipse" fill="#FFFFFF"></path>
                <path d="M6,5.5 C6,4.6716 6.4477,4 7,4 C7.5523,4 8,4.6716 8,5.5 C8,6.3284 7.5523,7 7,7 C6.4477,7 6,6.3284 6,5.5 L6,5.5 Z" id="Ellipse2" fill="#FFFFFF"></path>
                <path d="M10,1.5 C10,0.6716 10.4477,0 11,0 C11.5523,0 12,0.6716 12,1.5 C12,2.3284 11.5523,3 11,3 C10.4477,3 10,2.3284 10,1.5 L10,1.5 Z" id="Ellipse3" fill="#FFFFFF"></path>
            </g>
            <g id="backlight" transform="translate(81.000000, 3.000000)" sketch:type="MSShapeGroup">
                <g id="off" transform="translate(2.000000, 18.000000)" stroke="#FFFFFF" fill="#333333">
                    <rect id="Rectangle-path" x="0" y="0" width="10" height="6"></rect>
                </g>
                <g id="on">
                    <path d="M0,5 C0,2.2385 3.134,0 7,0 C10.866,0 14,2.2385 14,5 C14,7.7615 10.866,10 7,10 C3.134,10 0,7.7615 0,5 L0,5 Z" id="Ellipse4" fill="url(#radialGradient-1)"></path>
                    <rect id="Rectangle-path" stroke="#FFFFFF" fill="#333333" x="2" y="2" width="10" height="6"></rect>
                </g>
            </g>
            <g id="loop" transform="translate(66.000000, 2.000000)" sketch:type="MSShapeGroup">
                <g id="on2">
                    <path d="M7.795,2.205 C9.2155,2.8785 10.2,4.3234 10.2,6 C10.2,8.3196 8.3196,10.2 6,10.2 C3.6804,10.2 1.8,8.3196 1.8,6 C1.8,4.3234 2.7845,2.8785 4.205,2.205 L2.875,0.875 C1.1501,1.9289 0,3.8306 0,6 C0,9.3138 2.6862,12 6,12 C9.3138,12 12,9.3138 12,6 C12,3.8306 10.8499,1.9289 9.125,0.875 L7.795,2.205 L7.795,2.205 Z" id="Shape" fill="url(#linearGradient-2)"></path>
                    <path d="M5,0 L0,0 L5,5 L5,0 L5,0 Z" id="Shape" fill="url(#linearGradient-3)"></path>
                </g>
                <g id="off2" transform="translate(0.000000, 16.000000)" fill="#A8A8B7">
                    <path d="M7.795,2.205 C9.2155,2.8785 10.2,4.3234 10.2,6 C10.2,8.3196 8.3196,10.2 6,10.2 C3.6804,10.2 1.8,8.3196 1.8,6 C1.8,4.3234 2.7845,2.8785 4.205,2.205 L2.875,0.875 C1.1501,1.9289 0,3.8306 0,6 C0,9.3138 2.6862,12 6,12 C9.3138,12 12,9.3138 12,6 C12,3.8306 10.8499,1.9289 9.125,0.875 L7.795,2.205 L7.795,2.205 Z" id="Shape"></path>
                    <path d="M5,0 L0,0 L5,5 L5,0 L5,0 Z" id="Shape"></path>
                </g>
            </g>
            <g id="cc" transform="translate(49.000000, 2.000000)">
                <rect id="Rectangle-path" stroke="#B0B0B0" sketch:type="MSShapeGroup" x="0" y="0" width="14" height="12"></rect>
                <text fill="#FFFFFF" sketch:type="MSTextLayer" font-family="Arial" font-size="8.95104895" font-weight="normal">
                    <tspan x="2.1" y="24.2" fill="#000000">cc</tspan>
                </text>
                <path d="M6,5 C1.2813,1.7813 1.063,10.9405 6,8" id="Shape" stroke="#FFFFFF" sketch:type="MSShapeGroup"></path>
                <path d="M11,5 C6.2813,1.7813 6.063,10.9405 11,8" id="Shape" stroke="#FFFFFF" sketch:type="MSShapeGroup"></path>
                <path d="M1,1 L13,1 L13,11 L1,11 L1,1 L1,1 Z M0,0 L0,12 L14,12 L14,0 L0,0 L0,0 Z" id="Shape" fill="url(#linearGradient-4)" sketch:type="MSShapeGroup"></path>
                <rect id="Rectangle-path" sketch:type="MSShapeGroup" x="0" y="0" width="14" height="12"></rect>
            </g>
            <g id="fullscreen" transform="translate(34.000000, 2.000000)" sketch:type="MSShapeGroup">
                <g id="enter%201">
                    <path d="M0,0 L5,0 L0,5 L0,0 L0,0 Z" id="Shape" fill="url(#linearGradient-3)"></path>
                    <path d="M0,12 L5,12 L0,7 L0,12 L0,12 Z" id="Shape" fill="url(#linearGradient-5)"></path>
                    <path d="M12,0 L7,0 L12,5 L12,0 L12,0 Z" id="Shape" fill="url(#linearGradient-3)"></path>
                    <path d="M12,12 L7,12 L12,7 L12,12 L12,12 Z" id="Shape" fill="url(#linearGradient-6)"></path>
                </g>
                <g id="exit" transform="translate(0.000000, 16.000000)">
                    <path d="M8,4 L12,4 L8,0 L8,4 L8,4 Z" id="Shape" fill="url(#linearGradient-7)"></path>
                    <path d="M4,4 L4,0 L0,4 L4,4 L4,4 Z" id="Shape" fill="url(#linearGradient-3)"></path>
                    <path d="M4,8 L0,8 L4,12 L4,8 L4,8 Z" id="Shape" fill="url(#linearGradient-8)"></path>
                    <path d="M8,8 L8,12 L12,8 L8,8 L8,8 Z" id="Shape" fill="url(#linearGradient-9)"></path>
                </g>
            </g>
            <g id="stop" transform="translate(115.000000, 3.000000)" fill="url(#linearGradient-10)" sketch:type="MSShapeGroup">
                <rect id="Rectangle-path" x="0" y="0" width="10" height="10"></rect>
            </g>
            <g id="chooser" transform="translate(129.000000, 1.000000)" fill="url(#linearGradient-11)" sketch:type="MSShapeGroup">
                <path d="M6.2346,5.1522 C7.2551,4.7295 8.4251,5.2141 8.8478,6.2346 C9.2704,7.2551 8.7859,8.425 7.7654,8.8478 C6.7449,9.2705 5.5749,8.7859 5.1522,7.7654 C4.7295,6.7449 5.2141,5.5749 6.2346,5.1522 L6.2346,5.1522 Z M4.2735,0.4176 L7,3.0054 L9.7265,0.4176 L9.8246,4.1754 L13.5824,4.2735 L10.9946,7 L13.5824,9.7265 L9.8246,9.8246 L9.7265,13.5824 L7,10.9946 L4.2735,13.5824 L4.1754,9.8246 L0.4176,9.7265 L3.0054,7 L0.4176,4.2735 L4.1754,4.1754 L4.2735,0.4176 L4.2735,0.4176 Z" id="Shape"></path>
            </g>
            <g id="play/pause" transform="translate(2.000000, 2.000000)" stroke-width="0.5" sketch:type="MSShapeGroup">
                <g id="play">
                    <circle id="Oval-1-Copy-2" stroke="#AFAFAF" fill="#D2D2D2" cx="6" cy="6" r="6"></circle>
                    <path d="M3.5,2.27231966 C3.5,1.72418285 3.88223714,1.52040563 4.34576633,1.81214534 L10.1542337,5.46792491 C10.6213375,5.76191445 10.6177629,6.24081553 10.1542337,6.53255524 L4.34576633,10.1883348 C3.87866248,10.4823244 3.5,10.2652996 3.5,9.72816049 L3.5,2.27231966 Z" id="Rectangle-7-Copy-2" stroke="#484848" fill="#FFFFFF"></path>
                </g>
                <g id="pause" transform="translate(0.000000, 16.000000)">
                    <circle id="Oval-1-Copy" stroke="#AFAFAF" fill="#D2D2D2" cx="6" cy="6" r="6"></circle>
                    <rect id="Rectangle-7" stroke="#484848" fill="#FFFFFF" x="2.5" y="2.5" width="3" height="7" rx="0.5"></rect>
                    <rect id="Rectangle-7-Copy" stroke="#484848" fill="#FFFFFF" x="6.5" y="2.5" width="3" height="7" rx="0.5"></rect>
                </g>
            </g>
            <g id="volume" transform="translate(17.000000, 1.500000)" sketch:type="MSShapeGroup">
                <g id="no%20sound">
                    <path d="M10.402946,3.87674981 L13.7242126,8.83090366 C13.8010969,8.94558782 13.9563939,8.97623065 14.071078,8.89934635 C14.1857622,8.82246204 14.216405,8.66716512 14.1395207,8.55248096 L10.818254,3.59832711 C10.7413697,3.48364295 10.5860728,3.45300012 10.4713887,3.52988442 C10.3567045,3.60676873 10.3260617,3.76206565 10.402946,3.87674981 L10.402946,3.87674981 Z" id="Shape" fill="#515151"></path>
                    <path d="M13.7242126,3.59832711 L10.402946,8.55248096 C10.3260617,8.66716512 10.3567045,8.82246204 10.4713887,8.89934635 C10.5860728,8.97623065 10.7413697,8.94558782 10.818254,8.83090366 L14.1395207,3.87674981 C14.216405,3.76206565 14.1857622,3.60676873 14.071078,3.52988442 C13.9563939,3.45300012 13.8010969,3.48364295 13.7242126,3.59832711 L13.7242126,3.59832711 Z" id="Shape" fill="#515151"></path>
                    <path d="M2.5,1.00034731 C2.5,0.72401312 2.73083146,0.47987802 3.00747456,0.463200429 C3.00747456,0.463200429 3.4008786,0.407278097 3.5,0.5 C5.06146692,2.77250274 9.5,4.52208119 9.5,4.52208119 L9.5,8.19538625 C9.5,8.46847142 9.28886987,8.78244408 9.04382186,8.89287264 C9.04382186,8.89287264 4.63816056,10.76593 3.5,12.5 C3.55403545,12.5 2.97210867,12.4999999 2.97210867,12.4999999 C2.71137025,12.4999998 2.5,12.2709992 2.5,11.9996525 L2.5,1.00034731 Z" id="Rectangle-7-Copy-6" stroke="#484848" stroke-width="0.5" fill="#FFFFFF" transform="translate(6.000000, 6.473345) scale(-1, 1) translate(-6.000000, -6.473345) "></path>
                    <rect id="Rectangle-7-Copy-5" stroke="#484848" stroke-width="0.5" fill="#FFFFFF" x="0" y="3.5" width="3" height="6" rx="0.5"></rect>
                    <path d="M4.43068831,5.15347948 C5.32532504,4.90920767 6.18614884,4.43049903 7.15045777,3.7038097 C7.26072466,3.62071416 7.28275138,3.46396295 7.19965585,3.35369607 C7.11656031,3.24342919 6.95980911,3.22140246 6.84954223,3.304498 C5.93144443,3.99636328 5.12227821,4.44634487 4.29898911,4.67113591 C4.16579361,4.70750364 4.08729919,4.84496179 4.12366692,4.97815729 C4.16003465,5.11135279 4.29749281,5.18984721 4.43068831,5.15347948 L4.43068831,5.15347948 Z" id="Shape-Copy-2" fill="#515151"></path>
                </g>
                <g id="sound%20bars" transform="translate(0.000000, 16.000000)">
                    <path d="M13.5164647,3.35189361 C14.2578572,5.46146302 14.2422669,7.54559907 13.5159498,9.64958401 C13.470964,9.77989819 13.5243934,9.92839326 13.6352876,9.98125702 C13.7461818,10.0341208 13.8725476,9.97133481 13.9175334,9.84102063 C14.6859075,7.6152055 14.7025335,5.39261682 13.9170185,3.15750059 C13.871338,3.02752057 13.7446396,2.9656673 13.6340297,3.01934745 C13.5234198,3.0730276 13.4707842,3.22191359 13.5164647,3.35189361 L13.5164647,3.35189361 Z" id="Shape" fill="#515151"></path>
                    <path d="M12.0187936,3.87770471 C12.6752187,5.63463816 12.6613205,7.36941152 12.0181675,9.12398651 C11.9668991,9.26385105 12.0278508,9.42320172 12.1543071,9.4799062 C12.2807633,9.53661068 12.4248377,9.46919612 12.4761061,9.32933158 C13.1671727,7.44404448 13.1822612,5.56068855 12.47548,3.66897586 C12.4233667,3.5294938 12.2788878,3.46314678 12.1527774,3.52078566 C12.0266669,3.57842454 11.9666804,3.73822264 12.0187936,3.87770471 L12.0187936,3.87770471 Z" id="Shape" fill="#515151"></path>
                    <path d="M10.5187936,4.31475393 C11.1752187,5.77886513 11.1613205,7.2245096 10.5181675,8.68665542 C10.4668991,8.80320921 10.5278508,8.93600144 10.6543071,8.98325517 C10.7807633,9.0305089 10.9248377,8.9743301 10.9761061,8.85777632 C11.6671727,7.28670374 11.6822612,5.71724046 10.97548,4.14081322 C10.9233667,4.02457816 10.7788878,3.96928898 10.6527774,4.01732138 C10.5266669,4.06535378 10.4666804,4.19851887 10.5187936,4.31475393 L10.5187936,4.31475393 Z" id="Shape-Copy" fill="#515151"></path>
                    <path d="M2.5,1.00034731 C2.5,0.72401312 2.73083146,0.47987802 3.00747456,0.463200429 C3.00747456,0.463200429 3.4008786,0.407278097 3.5,0.5 C5.06146692,2.77250274 9.5,4.52208119 9.5,4.52208119 L9.5,8.19538625 C9.5,8.46847142 9.28886987,8.78244408 9.04382186,8.89287264 C9.04382186,8.89287264 4.63816056,10.76593 3.5,12.5 C3.55403545,12.5 2.97210867,12.4999999 2.97210867,12.4999999 C2.71137025,12.4999998 2.5,12.2709992 2.5,11.9996525 L2.5,1.00034731 Z" id="Rectangle-7-Copy-4" stroke="#484848" stroke-width="0.5" fill="#FFFFFF" transform="translate(6.000000, 6.473345) scale(-1, 1) translate(-6.000000, -6.473345) "></path>
                    <rect id="Rectangle-7-Copy-3" stroke="#484848" stroke-width="0.5" fill="#FFFFFF" x="0" y="3.5" width="3" height="6" rx="0.5"></rect>
                    <path d="M4.43068831,5.15347948 C5.32532504,4.90920767 6.18614884,4.43049903 7.15045777,3.7038097 C7.26072466,3.62071416 7.28275138,3.46396295 7.19965585,3.35369607 C7.11656031,3.24342919 6.95980911,3.22140246 6.84954223,3.304498 C5.93144443,3.99636328 5.12227821,4.44634487 4.29898911,4.67113591 C4.16579361,4.70750364 4.08729919,4.84496179 4.12366692,4.97815729 C4.16003465,5.11135279 4.29749281,5.18984721 4.43068831,5.15347948 L4.43068831,5.15347948 Z" id="Shape" fill="#515151"></path>
                </g>
            </g>
        </g>
    </g>
</svg>